Hanif_Medium_2_5_grf.mot
version=1
nRows=64
nColumns=19
inDegrees=yes
endheader
time	right_ground_force_vx	right_ground_force_vy	right_ground_force_vz	right_ground_force_px	right_ground_force_py	right_ground_force_pz	right_ground_torque_x	right_ground_torque_y	right_ground_torque_z	left_ground_force_vx	left_ground_force_vy	left_ground_force_vz	left_ground_force_px	left_ground_force_py	left_ground_force_pz	left_ground_torque_x	left_ground_torque_y	left_ground_torque_z
0.725000	-6.493910	250.006000	37.540600	0.232854	0.000000	-1.434230	-17.944700	-1.651980	8.220910	-7.023310	285.220000	-54.477600	0.225727	0.000000	-0.971929	19.742300	-1.458930	7.976550
0.730000	-7.198890	252.271000	37.679600	0.232929	0.000000	-1.433090	-18.398600	-1.614440	8.329660	-7.684470	285.902000	-53.295400	0.225925	0.000000	-0.971898	19.790800	-1.532450	8.054080
0.735000	-7.868340	254.620000	37.611600	0.232206	0.000000	-1.433450	-18.478300	-1.639210	8.221460	-7.711420	287.865000	-52.905200	0.225969	0.000000	-0.971619	19.839400	-1.322920	8.068540
0.740000	-9.160630	260.911000	38.253500	0.232428	0.000000	-1.433030	-19.044900	-1.741580	8.485270	-8.024060	289.176000	-52.383100	0.226048	0.000000	-0.972467	20.176000	-1.249920	8.107050
0.745000	-9.857730	265.959000	38.064800	0.232299	0.000000	-1.433080	-19.401600	-1.722620	8.622490	-8.075560	293.908000	-51.893700	0.226447	0.000000	-0.972040	20.378500	-1.236000	8.331940
0.750000	-10.229700	271.194000	38.043200	0.231989	0.000000	-1.432870	-19.840200	-1.738130	8.707140	-8.134540	294.904000	-50.842100	0.226336	0.000000	-0.972870	20.690500	-1.187450	8.300050
0.755000	-10.467400	274.536000	38.790800	0.231898	0.000000	-1.432730	-20.126000	-1.740590	8.794340	-7.344980	297.715000	-49.806400	0.226466	0.000000	-0.972933	20.897100	-1.283620	8.400530
0.760000	-10.279300	280.011000	39.157300	0.231501	0.000000	-1.433290	-20.374800	-1.600090	8.874020	-6.668440	301.641000	-49.261700	0.225957	0.000000	-0.973203	21.244500	-1.345650	8.334740
0.765000	-9.253650	285.132000	39.220100	0.231798	0.000000	-1.433100	-20.798800	-1.510700	9.123280	-5.707730	305.592000	-48.624100	0.226500	0.000000	-0.974447	21.891000	-1.375970	8.587150
0.770000	-9.292400	286.969000	38.581100	0.231391	0.000000	-1.433150	-20.924300	-1.335730	9.082580	-5.062900	307.786000	-48.612200	0.226866	0.000000	-0.974668	22.108100	-1.350300	8.745810
0.775000	-8.536910	288.460000	38.929200	0.231242	0.000000	-1.433050	-21.059100	-1.271200	9.088570	-4.475970	308.917000	-47.905700	0.227054	0.000000	-0.974542	22.143100	-1.311510	8.811610
0.780000	-8.286400	289.291000	38.440000	0.230974	0.000000	-1.432700	-21.224600	-1.163330	9.044720	-4.635010	310.540000	-46.969100	0.226572	0.000000	-0.974526	22.256800	-1.450890	8.710100
0.785000	-8.733440	292.888000	38.333300	0.230501	0.000000	-1.433290	-21.317700	-1.069020	9.029540	-4.267670	311.313000	-45.834400	0.227118	0.000000	-0.974482	22.294500	-1.452720	8.884050
0.790000	-8.736680	294.361000	37.673900	0.230170	0.000000	-1.433010	-21.510000	-0.925926	8.989390	-4.849640	311.596000	-44.542800	0.227393	0.000000	-0.975810	22.732600	-1.341130	8.952170
0.795000	-9.163880	294.999000	37.536100	0.229671	0.000000	-1.433780	-21.332100	-0.902045	8.863920	-6.563600	310.399000	-43.151300	0.227946	0.000000	-0.975576	22.589300	-1.239820	9.080720
0.800000	-9.218740	296.868000	37.115100	0.229613	0.000000	-1.433970	-21.414100	-0.741788	8.918920	-7.400300	310.928000	-41.679300	0.227730	0.000000	-0.975781	22.700200	-1.268720	9.019230
0.805000	-8.660780	298.825000	36.894300	0.228170	0.000000	-1.434870	-21.283300	-0.686644	8.537470	-6.801210	310.461000	-40.970800	0.228155	0.000000	-0.975592	22.602700	-1.352490	9.136940
0.810000	-7.731950	300.532000	37.265600	0.227797	0.000000	-1.434540	-21.503700	-0.549769	8.482590	-7.361530	311.569000	-40.410200	0.227845	0.000000	-0.975733	22.731300	-1.302430	9.059910
0.815000	-6.498050	301.135000	37.085900	0.227089	0.000000	-1.436100	-21.071300	-0.376735	8.290850	-7.415790	312.449000	-39.869800	0.227544	0.000000	-0.975340	22.674200	-1.386370	8.991650
0.820000	-5.738540	301.590000	37.583300	0.226084	0.000000	-1.435520	-21.279300	-0.220291	8.011720	-7.369800	312.086000	-39.536700	0.227715	0.000000	-0.975924	22.830100	-1.397070	9.033340
0.825000	-4.199900	302.651000	37.669100	0.225197	0.000000	-1.436740	-20.977500	-0.006589	7.779320	-7.495580	312.925000	-39.512100	0.226697	0.000000	-0.976089	22.946500	-1.530090	8.749690
0.830000	-3.051210	303.363000	37.855100	0.224544	0.000000	-1.437480	-20.799900	0.191439	7.611520	-6.748360	314.505000	-39.718100	0.226810	0.000000	-0.975828	22.971000	-1.530860	8.821630
0.835000	-1.947340	303.326000	37.435700	0.223319	0.000000	-1.438020	-20.630400	0.447273	7.252530	-6.658660	315.859000	-39.392700	0.226391	0.000000	-0.975092	22.837700	-1.654150	8.731810
0.840000	-1.463090	304.281000	37.753100	0.222334	0.000000	-1.437730	-20.780000	0.632269	6.991250	-6.411150	314.161000	-39.223100	0.226031	0.000000	-0.975743	22.916900	-1.646870	8.569180
0.845000	-1.445580	304.542000	37.152800	0.220754	0.000000	-1.438930	-20.432700	0.775083	6.520770	-6.142870	313.536000	-39.024900	0.225485	0.000000	-0.975282	22.724600	-1.700310	8.381050
0.850000	-0.374485	304.138000	37.400100	0.219933	0.000000	-1.439740	-20.155200	1.006750	6.280840	-6.104760	314.399000	-38.608300	0.224949	0.000000	-0.975508	22.858600	-1.799980	8.237630
0.855000	-0.231260	306.353000	37.526800	0.219225	0.000000	-1.440860	-19.956200	1.096970	6.114350	-6.138940	315.636000	-37.557200	0.224496	0.000000	-0.975564	22.966800	-1.872210	8.117080
0.860000	0.114131	302.999000	37.302600	0.218098	0.000000	-1.440780	-19.760300	1.282280	5.723680	-6.612870	318.248000	-37.027900	0.224659	0.000000	-0.974661	22.874100	-1.890880	8.229150
0.865000	0.018964	301.286000	37.544600	0.217639	0.000000	-1.441380	-19.467600	1.481480	5.581380	-7.490510	319.499000	-35.942100	0.224667	0.000000	-0.974679	22.980300	-1.946600	8.260170
0.870000	0.820577	301.604000	37.226100	0.215544	0.000000	-1.441770	-19.366400	1.665360	4.958600	-7.868880	319.397000	-35.328800	0.224489	0.000000	-0.974824	23.022600	-1.912530	8.191380
0.875000	1.414390	302.581000	37.244700	0.215028	0.000000	-1.442460	-19.216500	1.853400	4.833300	-8.737420	319.519000	-35.060000	0.224147	0.000000	-0.974824	23.045200	-2.040240	8.101120
0.880000	2.121700	302.443000	36.468300	0.214066	0.000000	-1.443510	-18.882600	2.061820	4.548650	-8.821160	319.888000	-34.225600	0.222888	0.000000	-0.974791	23.060700	-2.043240	7.691690
0.885000	2.462760	300.943000	35.639400	0.213307	0.000000	-1.443080	-18.913700	2.219160	4.305150	-8.259470	319.044000	-34.332700	0.222957	0.000000	-0.973380	22.544600	-2.119610	7.699800
0.890000	3.274610	301.667000	35.554200	0.212328	0.000000	-1.443030	-18.967700	2.418600	4.031250	-7.709990	318.190000	-34.084100	0.222316	0.000000	-0.974073	22.702000	-2.289220	7.485960
0.895000	2.945130	305.002000	35.055900	0.211919	0.000000	-1.443620	-18.998000	2.670390	3.969300	-6.870850	320.497000	-34.174500	0.222378	0.000000	-0.973076	22.536800	-2.379020	7.558770
0.900000	3.037740	307.241000	34.540800	0.211686	0.000000	-1.444310	-18.923200	2.725740	3.921160	-6.760730	321.343000	-34.254600	0.221176	0.000000	-0.973220	22.642100	-2.483530	7.197450
0.905000	2.683920	310.585000	34.634100	0.210850	0.000000	-1.444150	-19.184700	2.839840	3.709830	-6.259780	322.697000	-34.310000	0.220571	0.000000	-0.972523	22.506900	-2.576890	7.033400
0.910000	1.400270	314.221000	34.556100	0.210891	0.000000	-1.445030	-19.142800	2.845530	3.766960	-6.013430	324.504000	-34.714100	0.219994	0.000000	-0.972079	22.485400	-2.611580	6.886360
0.915000	0.655905	315.739000	34.332400	0.210956	0.000000	-1.444370	-19.450900	2.966560	3.818470	-6.503870	324.771000	-35.035600	0.219398	0.000000	-0.971685	22.382800	-2.660390	6.708560
0.920000	0.403519	320.300000	33.869600	0.210047	0.000000	-1.445690	-19.314100	3.021590	3.570990	-7.193070	325.365000	-35.677400	0.219491	0.000000	-0.971898	22.504200	-2.749180	6.773630
0.925000	-0.403458	322.049000	34.535200	0.209941	0.000000	-1.446020	-19.319900	3.062020	3.569280	-7.267360	325.898000	-35.278600	0.219430	0.000000	-0.971689	22.472800	-2.726540	6.755710
0.930000	-0.967875	323.964000	34.604500	0.209346	0.000000	-1.447220	-19.053800	3.101060	3.399640	-8.206560	329.043000	-34.602600	0.218685	0.000000	-0.971050	22.489000	-2.712300	6.560210
0.935000	-1.634670	323.421000	34.508500	0.209131	0.000000	-1.447420	-18.964000	3.139300	3.331830	-9.277730	328.460000	-34.122000	0.218179	0.000000	-0.970929	22.423800	-2.714850	6.382900
0.940000	-1.707060	323.281000	34.291800	0.208696	0.000000	-1.447530	-18.919800	3.210430	3.194140	-8.940640	329.046000	-34.462200	0.217584	0.000000	-0.970801	22.417400	-2.759870	6.201970
0.945000	-2.615910	324.536000	34.000000	0.207963	0.000000	-1.448880	-18.565900	3.273330	2.971170	-8.004620	328.583000	-33.963700	0.216940	0.000000	-0.970365	22.231900	-2.858410	5.976990
0.950000	-3.077970	326.615000	34.216500	0.207511	0.000000	-1.448730	-18.741400	3.280690	2.842230	-7.644030	327.724000	-33.319300	0.216440	0.000000	-0.970936	22.358100	-2.958930	5.796960
0.955000	-3.613460	323.907000	33.841300	0.206435	0.000000	-1.449440	-18.362200	3.302370	2.473600	-6.915210	327.604000	-32.411700	0.215625	0.000000	-0.970516	22.204300	-3.085670	5.520550
0.960000	-3.884590	322.351000	34.143600	0.205839	0.000000	-1.449490	-18.261600	3.397930	2.286500	-6.615280	327.249000	-32.375200	0.215086	0.000000	-0.969656	21.897000	-3.216250	5.347030
0.965000	-3.521130	323.423000	33.653300	0.205690	0.000000	-1.449950	-18.170300	3.433730	2.237880	-6.259000	325.822000	-31.278700	0.214478	0.000000	-0.969684	21.806100	-3.238040	5.111700
0.970000	-3.575500	324.050000	33.717900	0.205328	0.000000	-1.451230	-17.789600	3.480070	2.127870	-6.573740	326.415000	-31.657500	0.213726	0.000000	-0.969225	21.701100	-3.311820	4.885970
0.975000	-3.771930	323.821000	33.270400	0.204251	0.000000	-1.451000	-17.857400	3.596230	1.781850	-6.568620	326.556000	-31.182200	0.213211	0.000000	-0.969338	21.748000	-3.379080	4.717710
0.980000	-3.572700	325.559000	32.906300	0.203745	0.000000	-1.451810	-17.687600	3.757170	1.630900	-6.279850	323.874000	-31.112100	0.212408	0.000000	-0.968867	21.414800	-3.443680	4.426150
0.985000	-2.780530	324.551000	32.986700	0.203120	0.000000	-1.451960	-17.575100	3.927770	1.437690	-5.759420	323.524000	-31.209000	0.211610	0.000000	-0.969120	21.467200	-3.510570	4.166350
0.990000	-1.721430	323.915000	32.920500	0.202281	0.000000	-1.451900	-17.545100	4.104830	1.173270	-5.022960	322.403000	-30.328900	0.210854	0.000000	-0.968552	21.202000	-3.692500	3.908750
0.995000	-0.502936	325.918000	33.160100	0.201264	0.000000	-1.452740	-17.365200	4.208770	0.847099	-4.188870	322.651000	-30.732100	0.210076	0.000000	-0.967275	20.794700	-3.751630	3.663540
1.000000	-0.104226	326.190000	33.032700	0.200668	0.000000	-1.453270	-17.202800	4.251410	0.651307	-4.276600	321.837000	-29.841500	0.209777	0.000000	-0.968644	21.185400	-3.851070	3.556830
1.005000	0.592531	325.210000	33.577200	0.200357	0.000000	-1.453870	-16.944600	4.278940	0.555950	-3.878730	321.546000	-30.127400	0.208878	0.000000	-0.967584	20.819300	-3.840600	3.263010
1.010000	1.757260	324.013000	33.614800	0.198662	0.000000	-1.453920	-16.850200	4.511690	0.020507	-3.234440	318.253000	-29.230500	0.208676	0.000000	-0.968879	21.012100	-4.031410	3.174390
1.015000	2.357920	323.041000	33.877900	0.198044	0.000000	-1.453930	-16.789900	4.588730	-0.170462	-2.456820	319.016000	-28.942300	0.207826	0.000000	-0.968044	20.784500	-4.090860	2.902930
1.020000	2.976630	322.841000	34.525500	0.196916	0.000000	-1.454360	-16.629500	4.708520	-0.520030	-1.426400	318.995000	-29.367700	0.207629	0.000000	-0.968666	20.967400	-4.196380	2.849110
1.025000	3.527520	323.354000	34.049400	0.196941	0.000000	-1.454890	-16.478800	4.628800	-0.531571	-1.418740	319.155000	-28.440400	0.206852	0.000000	-0.968461	20.912200	-4.245730	2.590790
1.030000	3.514390	321.869000	33.725500	0.196286	0.000000	-1.454780	-16.436700	4.739190	-0.730968	-0.878470	317.361000	-28.598000	0.206302	0.000000	-0.968165	20.693400	-4.328830	2.411580
1.035000	3.905060	321.109000	32.674200	0.195246	0.000000	-1.455950	-16.017600	4.803430	-1.073520	-0.061542	317.891000	-28.579900	0.206173	0.000000	-0.968488	20.818800	-4.400090	2.374140
1.040000	4.196750	320.651000	32.975500	0.195355	0.000000	-1.455890	-16.009900	4.738790	-1.039370	-0.032696	318.984000	-28.629700	0.205880	0.000000	-0.968572	20.916700	-4.449600	2.290380
